<svg xmlns="http://www.w3.org/2000/svg" viewBox="0 0 270.72 45.59"><title>logo</title><rect x="126.04" y="5.34" width="11.9" height="11.81" style="fill:#43ff62"/><rect x="149.84" y="17.15" width="11.9" height="11.81" style="fill:#43ff62"/><rect x="114.13" y="5.34" width="11.9" height="11.81" style="fill:#43ff62"/><rect x="137.93" y="17.15" width="11.9" height="11.81" style="fill:#43ff62"/><rect x="137.93" y="5.34" width="11.9" height="11.81" style="fill:#43ff62"/><rect x="161.73" y="17.15" width="11.9" height="11.81" style="fill:#43ff62"/><rect x="102.23" y="5.35" width="11.9" height="11.81" style="fill:#43ff62"/><rect x="126.03" y="17.15" width="11.9" height="11.81" style="fill:#43ff62"/><rect x="90.33" y="5.35" width="11.9" height="11.81" style="fill:#43ff62"/><rect x="173.63" y="17.15" width="11.9" height="11.81" style="fill:#43ff62"/><rect x="185.53" y="17.15" width="11.9" height="11.81" style="fill:#43ff62"/><rect x="114.13" y="17.11" width="11.9" height="11.81" style="fill:#43ff62"/><rect x="102.23" y="17.12" width="11.9" height="11.81" style="fill:#43ff62"/><rect x="90.33" y="17.16" width="11.9" height="11.81" style="fill:#43ff62"/><rect x="149.84" y="28.96" width="11.9" height="11.81" style="fill:#43ff62"/><rect x="137.93" y="28.96" width="11.9" height="11.81" style="fill:#43ff62"/><rect x="161.73" y="28.97" width="11.9" height="11.81" style="fill:#43ff62"/><rect x="173.63" y="28.97" width="11.9" height="11.81" style="fill:#43ff62"/><rect x="185.53" y="28.97" width="11.9" height="11.81" style="fill:#43ff62"/><path d="M11.79,12.36l2.6,12.46h.34l.55-3.72,2.17-8.74h7.2l2.93,12.46h.26l.55-3.72,2-8.74H41.89L32.61,34.79H23.75l-2.47-10H21l-.55,2.37-2.08,7.6h-9L.21,12.36Z" transform="translate(-0.21 -0.19)"/><path d="M57.14,31.83h-.25c-.52.54-1,1-1.49,1.44a9.31,9.31,0,0,1-1.54,1.08,7.79,7.79,0,0,1-1.76.7A8.25,8.25,0,0,1,50,35.3a7.84,7.84,0,0,1-4.09-1.06,9.88,9.88,0,0,1-3-2.72,12.29,12.29,0,0,1-1.83-3.74,14.37,14.37,0,0,1-.62-4.1,14.77,14.77,0,0,1,.64-4.23A12.83,12.83,0,0,1,43,15.65a10.07,10.07,0,0,1,3.09-2.75,8.47,8.47,0,0,1,4.24-1.05,8.75,8.75,0,0,1,3.7.76A7.6,7.6,0,0,1,56.89,15h.25l-.34-2.66H67.57V34.79H56.8Zm-5.79-8.36A4,4,0,0,0,52,25.79a2.47,2.47,0,0,0,2.17,1,2.5,2.5,0,0,0,2.26-1,4.2,4.2,0,0,0,.68-2.35,3,3,0,0,0-.81-2.15,2.83,2.83,0,0,0-2.13-.85,2.55,2.55,0,0,0-2.08.93A3.3,3.3,0,0,0,51.35,23.47Z" transform="translate(-0.21 -0.19)"/><path d="M80,16h.26c.54-.62,1.06-1.18,1.55-1.67A11.15,11.15,0,0,1,83.4,13a6.67,6.67,0,0,1,1.83-.85,8.5,8.5,0,0,1,2.32-.29,8.05,8.05,0,0,1,3.58.74,6.88,6.88,0,0,1,2.44,2A8.05,8.05,0,0,1,95,17.47a14.16,14.16,0,0,1,.42,3.5V34.79h-11V23.85c0-.34,0-.69,0-1.06a3,3,0,0,0-.22-1,1.84,1.84,0,0,0-.57-.78,1.93,1.93,0,0,0-2.13,0,1.8,1.8,0,0,0-.55.78,3,3,0,0,0-.19,1c0,.37,0,.72,0,1.06V34.79h-11V12.36H80.44Z" transform="translate(-0.21 -0.19)"/><path d="M113.79,31.45h-.26a10.63,10.63,0,0,1-3.26,2.79,8.22,8.22,0,0,1-4.1,1.06,7.6,7.6,0,0,1-4-1.06,10,10,0,0,1-2.94-2.7,11.86,11.86,0,0,1-1.78-3.7,14.4,14.4,0,0,1-.6-4.08,16.2,16.2,0,0,1,.57-4.2,12.86,12.86,0,0,1,1.75-3.85,9.4,9.4,0,0,1,2.94-2.78,7.8,7.8,0,0,1,4.15-1.08,8.12,8.12,0,0,1,3.79,1,8.55,8.55,0,0,1,3,2.54h.38L112.89,10V.52h11V34.79H113.57Zm-3.37-11.07a2.43,2.43,0,0,0-2.08,1,3.52,3.52,0,0,0-.73,2.19,3.58,3.58,0,0,0,.73,2.24,2.42,2.42,0,0,0,2.08,1,2.31,2.31,0,0,0,1.17-.29,2.82,2.82,0,0,0,.9-.78,4.34,4.34,0,0,0,.57-1.06,3.36,3.36,0,0,0,.22-1.16,3.23,3.23,0,0,0-.81-2.14A2.58,2.58,0,0,0,110.42,20.38Z" transform="translate(-0.21 -0.19)"/><path d="M136.15,25.41a13.07,13.07,0,0,0,.08,1.38A3.67,3.67,0,0,0,136.6,28a2.24,2.24,0,0,0,.78.89,2.5,2.5,0,0,0,1.37.34,2.1,2.1,0,0,0,1.44-.53A2.37,2.37,0,0,0,141,27.4h10.68a8.41,8.41,0,0,1-1.87,3.5,11.84,11.84,0,0,1-3.09,2.48,14.17,14.17,0,0,1-3.78,1.45,17.78,17.78,0,0,1-4,.47,18.42,18.42,0,0,1-5.13-.7,13.4,13.4,0,0,1-4.35-2.09,10.32,10.32,0,0,1-3-3.53,10.66,10.66,0,0,1-1.13-5.05,11.87,11.87,0,0,1,1-5,11.38,11.38,0,0,1,2.76-3.8,12.45,12.45,0,0,1,4.13-2.41,15.15,15.15,0,0,1,5.07-.84,16.77,16.77,0,0,1,5.64.93,12.91,12.91,0,0,1,4.51,2.68,11.61,11.61,0,0,1,2.9,4.27,13,13,0,0,1,.78,5.68Zm5.15-4.65a3,3,0,0,0-.75-2,2.37,2.37,0,0,0-1.93-.89,2.12,2.12,0,0,0-1.85.86,3.41,3.41,0,0,0-.62,2.05Z" transform="translate(-0.21 -0.19)"/><path d="M165.55,18.36l-.93-.51a2.34,2.34,0,0,0-1.05-.21,2.47,2.47,0,0,0-1.91.7,2.82,2.82,0,0,0-.62,1.94v5.08h-6.47V12.14H161l-.15,1.77H161a5.67,5.67,0,0,1,.87-1.06,3.64,3.64,0,0,1,1-.64,4.11,4.11,0,0,1,1.18-.32,11.23,11.23,0,0,1,1.47-.05Z" transform="translate(-0.21 -0.19)"/><path d="M179.45,26.05l.68.42a21.41,21.41,0,0,0,2.68,1.39,7.28,7.28,0,0,0,2.94.68,2.21,2.21,0,0,0,1.09-.3,1,1,0,0,0,.53-.93,1.06,1.06,0,0,0-.21-.71,1.41,1.41,0,0,0-.56-.39,5.42,5.42,0,0,0-.72-.19l-.73-.1a14.78,14.78,0,0,1-2.64-.57,7.45,7.45,0,0,1-2.25-1.14,5.64,5.64,0,0,1-1.58-1.82,5.56,5.56,0,0,1-.59-2.68,6.43,6.43,0,0,1,1-3.59,7.61,7.61,0,0,1,2.49-2.43,11.28,11.28,0,0,1,3.4-1.4,16.32,16.32,0,0,1,3.7-.44,25.28,25.28,0,0,1,4.52.44,14.4,14.4,0,0,1,4.25,1.46L194.73,20a12.06,12.06,0,0,0-2.38-1.31,7.06,7.06,0,0,0-2.68-.55,2.89,2.89,0,0,0-1,.21.8.8,0,0,0-.53.81,1,1,0,0,0,.79,1c.52.13,1.17.26,1.94.4a22,22,0,0,1,2.74.66,7.39,7.39,0,0,1,2.28,1.14,5.12,5.12,0,0,1,1.53,1.88,6.43,6.43,0,0,1,.56,2.83,6.81,6.81,0,0,1-1,3.76,8.2,8.2,0,0,1-2.55,2.56,11.45,11.45,0,0,1-3.51,1.45,16.8,16.8,0,0,1-3.88.47,19.64,19.64,0,0,1-5.27-.72,40.54,40.54,0,0,1-5.07-1.77Z" transform="translate(-0.21 -0.19)"/><path d="M206.21.19a6.65,6.65,0,0,1,4.32,1.39,4.68,4.68,0,0,1,1.73,3.85,5.13,5.13,0,0,1-.51,2.38,4.8,4.8,0,0,1-1.35,1.63,5.8,5.8,0,0,1-1.91,1,8.1,8.1,0,0,1-2.28.32,8.21,8.21,0,0,1-2.28-.32,5.8,5.8,0,0,1-1.91-1,4.77,4.77,0,0,1-1.34-1.63,5.13,5.13,0,0,1-.51-2.38,4.67,4.67,0,0,1,1.72-3.85A6.65,6.65,0,0,1,206.21.19Zm-5.49,12.17h11V34.79h-11Z" transform="translate(-0.21 -0.19)"/><path d="M240.79,33.48a11.75,11.75,0,0,1-1.25,5.62,11,11,0,0,1-3.35,3.8,14.21,14.21,0,0,1-4.83,2.18,22.72,22.72,0,0,1-5.68.7,26.92,26.92,0,0,1-5-.44A30.14,30.14,0,0,1,216,44l-1.1-.38,2.42-7.56a10.63,10.63,0,0,0,3.73,2,13.68,13.68,0,0,0,4.19.7,4.51,4.51,0,0,0,3.53-1.42,5.94,5.94,0,0,0,1.49-3.53l.22-2.28h-.3A5.35,5.35,0,0,1,229,33.21a6.93,6.93,0,0,1-1.62,1.16,8.24,8.24,0,0,1-1.89.7,9.05,9.05,0,0,1-2,.23,8,8,0,0,1-4.11-1.06,10.1,10.1,0,0,1-3.06-2.72,12.22,12.22,0,0,1-1.9-3.76,14.58,14.58,0,0,1-.64-4.21,14.4,14.4,0,0,1,.64-4.16,12.44,12.44,0,0,1,1.9-3.78,9.75,9.75,0,0,1,3.06-2.73,8.22,8.22,0,0,1,4.15-1,7.39,7.39,0,0,1,3.83,1,8,8,0,0,1,2.77,2.75h.3l-.3-3.21h10.64ZM224.66,23.6a3.2,3.2,0,0,0,.83,2.26,2.94,2.94,0,0,0,2.28.9,2.41,2.41,0,0,0,2.08-.93,3.61,3.61,0,0,0,.68-2.19,3.69,3.69,0,0,0-.74-2.26,2.5,2.5,0,0,0-2.11-1,2.78,2.78,0,0,0-2.19.93A3.28,3.28,0,0,0,224.66,23.6Z" transform="translate(-0.21 -0.19)"/><path d="M255.56,16h.26c.54-.62,1.06-1.18,1.55-1.67A11.15,11.15,0,0,1,259,13a6.67,6.67,0,0,1,1.83-.85,8.5,8.5,0,0,1,2.32-.29,8.05,8.05,0,0,1,3.58.74,6.88,6.88,0,0,1,2.44,2,8.05,8.05,0,0,1,1.39,2.9,14.16,14.16,0,0,1,.42,3.5V34.79H260V23.85c0-.34,0-.69,0-1.06a3,3,0,0,0-.22-1,1.84,1.84,0,0,0-.57-.78A1.93,1.93,0,0,0,257,21a1.8,1.8,0,0,0-.55.78,3,3,0,0,0-.19,1c0,.37,0,.72,0,1.06V34.79h-11V12.36H256Z" transform="translate(-0.21 -0.19)"/></svg>