<?xml version="1.0" encoding="utf-8"?>
<!-- Generator: Adobe Illustrator 24.0.0, SVG Export Plug-In . SVG Version: 6.00 Build 0)  -->
<svg version="1.1" id="图层_1" xmlns="http://www.w3.org/2000/svg" xmlns:xlink="http://www.w3.org/1999/xlink" x="0px" y="0px"
	 viewBox="0 0 714 472" style="enable-background:new 0 0 714 472;" xml:space="preserve">
<style type="text/css">
	.st0{fill:#43FF62;}
	.st1{font-family:'HelveticaNeue-Medium';}
	.st2{font-size:18px;}
	.st3{font-family:'HelveticaNeue-Bold';}
</style>
<rect x="590.44" y="6.15" class="st0" width="122.81" height="63.4"/>
<rect x="-0.08" y="0.67" class="st0" width="122.81" height="63.4"/>
<rect x="590.44" y="179.87" class="st0" width="122.81" height="63.4"/>
<rect x="-0.08" y="174.39" class="st0" width="122.81" height="63.4"/>
<rect x="590.44" y="332.65" class="st0" width="122.81" height="63.4"/>
<rect x="-0.08" y="327.17" class="st0" width="122.81" height="63.4"/>
<rect x="296.56" y="408.89" class="st0" width="122.81" height="63.4"/>
<g>
	<rect x="250.96" y="17.66" class="st0" width="53.5" height="53.34"/>
	<rect x="197.46" y="71" class="st0" width="53.5" height="53.34"/>
	<rect x="197.46" y="124.34" class="st0" width="53.5" height="53.34"/>
	<rect x="143.95" y="124.34" class="st0" width="53.5" height="53.34"/>
	<rect x="197.46" y="177.67" class="st0" width="53.5" height="53.34"/>
	<rect x="143.95" y="177.67" class="st0" width="53.5" height="53.34"/>
	<rect x="197.46" y="231.01" class="st0" width="53.5" height="53.34"/>
	<rect x="197.46" y="284.35" class="st0" width="53.5" height="53.34"/>
	<rect x="143.95" y="231.01" class="st0" width="53.5" height="53.34"/>
	<rect x="464.97" y="284.35" class="st0" width="53.5" height="53.34"/>
	<rect x="464.97" y="231.01" class="st0" width="53.5" height="53.34"/>
	<rect x="464.97" y="177.67" class="st0" width="53.5" height="53.34"/>
	<rect x="464.97" y="124.34" class="st0" width="53.5" height="53.34"/>
	<rect x="464.97" y="71" class="st0" width="53.5" height="53.34"/>
	<rect x="304.46" y="17.66" class="st0" width="53.5" height="53.34"/>
	<rect x="357.97" y="17.66" class="st0" width="53.5" height="53.34"/>
	<rect x="411.47" y="17.66" class="st0" width="53.5" height="53.34"/>
	<rect x="250.96" y="71" class="st0" width="53.5" height="53.34"/>
	<rect x="304.46" y="71" class="st0" width="53.5" height="53.34"/>
	<rect x="357.97" y="71" class="st0" width="53.5" height="53.34"/>
	<rect x="411.47" y="71" class="st0" width="53.5" height="53.34"/>
	<rect x="250.96" y="124.34" class="st0" width="53.5" height="53.34"/>
	<rect x="304.46" y="124.34" class="st0" width="53.5" height="53.34"/>
	<rect x="357.97" y="124.34" class="st0" width="53.5" height="53.34"/>
	<rect x="411.47" y="124.34" class="st0" width="53.5" height="53.34"/>
	<rect x="250.96" y="177.67" class="st0" width="53.5" height="53.34"/>
	<rect x="304.46" y="177.67" class="st0" width="53.5" height="53.34"/>
	<rect x="357.97" y="177.67" class="st0" width="53.5" height="53.34"/>
	<rect x="411.47" y="177.67" class="st0" width="53.5" height="53.34"/>
	<rect x="250.96" y="231.01" class="st0" width="53.5" height="53.34"/>
	<rect x="304.46" y="231.01" class="st0" width="53.5" height="53.34"/>
	<rect x="357.97" y="231.01" class="st0" width="53.5" height="53.34"/>
	<rect x="411.47" y="231.01" class="st0" width="53.5" height="53.34"/>
	<rect x="250.96" y="284.35" class="st0" width="53.5" height="53.34"/>
	<rect x="304.46" y="284.35" class="st0" width="53.5" height="53.34"/>
	<rect x="357.97" y="284.35" class="st0" width="53.5" height="53.34"/>
	<rect x="411.47" y="284.35" class="st0" width="53.5" height="53.34"/>
	<rect x="250.96" y="337.68" class="st0" width="53.5" height="53.34"/>
	<rect x="304.46" y="337.68" class="st0" width="53.5" height="53.34"/>
	<rect x="357.97" y="337.68" class="st0" width="53.5" height="53.34"/>
	<rect x="411.47" y="337.68" class="st0" width="53.5" height="53.34"/>
	<rect x="518.47" y="231.01" class="st0" width="53.5" height="53.34"/>
	<rect x="518.47" y="177.67" class="st0" width="53.5" height="53.34"/>
	<rect x="518.47" y="124.34" class="st0" width="53.5" height="53.34"/>
</g>
<g>
	<text transform="matrix(1 0 0 1 418.1579 104.4558)" class="st1 st2">Experience</text>
</g>
<g>
	<text transform="matrix(1 0 0 1 392.2974 311.0142)" class="st1 st2">Future Lifestyle</text>
</g>
<g>
	<text transform="matrix(1 0 0 1 624.5225 370.0142)" class="st1 st2">Service</text>
</g>
<g>
	<text transform="matrix(1 0 0 1 25.7169 38.8523)" class="st1 st2">Strategy</text>
</g>
<g>
	<text transform="matrix(1 0 0 1 26.3824 210.8)" class="st1 st2">Product</text>
</g>
<g>
	<text transform="matrix(1 0 0 1 37.3418 361.729)" class="st1 st2">Events</text>
</g>
<g>
	<text transform="matrix(1 0 0 1 206.3418 310.729)" class="st1 st2">Consumption</text>
</g>
<g>
	<text transform="matrix(1 0 0 1 606.207 217.0215)" class="st1 st2">Technology</text>
</g>
<g>
	<text transform="matrix(1 0 0 1 602.2026 42.0215)" class="st1 st2">Ethnography</text>
</g>
<g>
	<text transform="matrix(1 0 0 1 304.1295 208.0647)"><tspan x="0" y="0" class="st3 st2">Design-Driven</tspan><tspan x="11.16" y="21.6" class="st3 st2"> Innovation</tspan></text>
</g>
<g>
	<text transform="matrix(1 0 0 1 311.9828 445.9219)" class="st1 st2">Exhibitions</text>
</g>
<g>
	<text transform="matrix(1 0 0 1 207.209 104.4563)" class="st1 st2">Branding</text>
</g>
</svg>
