<svg xmlns="http://www.w3.org/2000/svg" viewBox="0 0 599.97 338.72"><title>资源 46</title><rect y="3.72" width="183.4" height="183.4" style="fill:#43ff62"/><rect x="131.2" y="155.32" width="183.4" height="183.4" style="fill:#43ff62"/><rect x="280.29" width="183.4" height="183.4" style="fill:#43ff62"/><rect x="416.57" y="155.32" width="183.4" height="183.4" style="fill:#43ff62"/><text transform="translate(37.13 101.2)" style="font-size:18px;font-family:HelveticaNeue-Medium, HelveticaNeue Medium;font-weight:500"><tspan style="letter-spacing:-0.010959201388888888em">C</tspan><tspan x="10.24" y="0">onsultan</tspan><tspan x="76.03" y="0" style="letter-spacing:0.017957899305555556em">c</tspan><tspan x="84.42" y="0">y</tspan></text><text transform="translate(183.4 254.05)" style="font-size:18px;font-family:HelveticaNeue-Medium, HelveticaNeue Medium;font-weight:500"><tspan style="letter-spacing:0.004014756944444444em">R</tspan><tspan x="9.76" y="0">esea</tspan><tspan x="43.6" y="0" style="letter-spacing:-0.009982638888888888em">r</tspan><tspan x="49.3" y="0">ch</tspan></text><text transform="translate(329.08 98.95)" style="font-size:18px;font-family:HelveticaNeue-Medium, HelveticaNeue Medium;font-weight:500"><tspan style="letter-spacing:-0.003960503472222222em">E</tspan><tspan x="8.78" y="0" style="letter-spacing:-0.00005425347222222222em">duc</tspan><tspan x="36.92" y="0" style="letter-spacing:-0.004014756944444444em">a</tspan><tspan x="45.52" y="0">tion</tspan></text><text transform="translate(442.28 255.15)" style="font-size:18px;font-family:HelveticaNeue-Medium, HelveticaNeue Medium;font-weight:500"><tspan style="letter-spacing:-0.002983940972222222em">C</tspan><tspan x="10.39" y="0" style="letter-spacing:-0.009982638888888888em">r</tspan><tspan x="16.09" y="0">e</tspan><tspan x="25.11" y="0" style="letter-spacing:-0.003960503472222222em">a</tspan><tspan x="33.71" y="0">ti</tspan><tspan x="43.88" y="0" style="letter-spacing:-0.010036892361111112em">v</tspan><tspan x="52.36" y="0">e </tspan><tspan x="65.2" y="0" style="letter-spacing:-0.016004774305555556em">P</tspan><tspan x="74.48" y="0" style="letter-spacing:-0.009982638888888888em">r</tspan><tspan x="80.19" y="0">oje</tspan><tspan x="103.46" y="0" style="letter-spacing:0.013020833333333334em">c</tspan><tspan x="111.76" y="0">ts</tspan></text></svg>