<svg xmlns="http://www.w3.org/2000/svg" viewBox="0 0 599.97 336.44"><title>资源 47</title><rect y="3.7" width="183.4" height="182.16" style="fill:#43ff62"/><rect x="131.2" y="154.28" width="183.4" height="182.16" style="fill:#43ff62"/><rect x="280.29" width="183.4" height="182.16" style="fill:#43ff62"/><rect x="416.57" y="154.28" width="183.4" height="182.16" style="fill:#43ff62"/><text transform="translate(37.13 100.52) scale(1.01 1)" style="font-size:17.878751754760742px;font-family:HelveticaNeue-Medium, HelveticaNeue Medium;font-weight:500"><tspan style="letter-spacing:-0.010959202664130996em">C</tspan><tspan x="10.17" y="0">onsultan</tspan><tspan x="75.52" y="0" style="letter-spacing:0.018012154873720248em">c</tspan><tspan x="83.85" y="0">y</tspan></text><text transform="translate(183.4 252.34) scale(1.01 1)" style="font-size:17.878751754760742px;font-family:HelveticaNeue-Medium, HelveticaNeue Medium;font-weight:500"><tspan style="letter-spacing:0.004014757411612345em">R</tspan><tspan x="9.69" y="0">esea</tspan><tspan x="43.3" y="0" style="letter-spacing:-0.00998264005049556em">r</tspan><tspan x="48.97" y="0">ch</tspan></text><text transform="translate(329.08 98.28) scale(1.01 1)" style="font-size:17.878751754760742px;font-family:HelveticaNeue-Medium, HelveticaNeue Medium;font-weight:500"><tspan style="letter-spacing:-0.0039605039330770425em">E</tspan><tspan x="8.73" y="0" style="letter-spacing:-0.00005425347853530196em">duc</tspan><tspan x="36.67" y="0" style="letter-spacing:-0.004014757411612345em">a</tspan><tspan x="45.21" y="0">tion</tspan></text><text transform="translate(442.28 253.43) scale(1.01 1)" style="font-size:17.878751754760742px;font-family:HelveticaNeue-Medium, HelveticaNeue Medium;font-weight:500"><tspan style="letter-spacing:-0.0029839413194416077em">C</tspan><tspan x="10.32" y="0" style="letter-spacing:-0.00998264005049556em">r</tspan><tspan x="15.98" y="0">e</tspan><tspan x="24.94" y="0" style="letter-spacing:-0.0039605039330770425em">a</tspan><tspan x="33.49" y="0">ti</tspan><tspan x="43.59" y="0" style="letter-spacing:-0.010036893529030862em">v</tspan><tspan x="52.01" y="0">e </tspan><tspan x="64.76" y="0" style="letter-spacing:-0.016004776167914077em">P</tspan><tspan x="73.98" y="0" style="letter-spacing:-0.00998264005049556em">r</tspan><tspan x="79.65" y="0">oje</tspan><tspan x="102.77" y="0" style="letter-spacing:0.01302083484847247em">c</tspan><tspan x="111.01" y="0">ts</tspan></text></svg>